<svg xmlns="http://www.w3.org/2000/svg" width="52.562" height="52.562" viewBox="0 0 52.562 52.562">
  <path id="_2703062_user_account_profile_icon" data-name="2703062_user_account_profile_icon" d="M53.562,27.281A26.281,26.281,0,1,0,9.046,46.164a1.6,1.6,0,0,0,.414.376,26.128,26.128,0,0,0,35.643,0,1.6,1.6,0,0,0,.414-.376A26.188,26.188,0,0,0,53.562,27.281Zm-26.281-23A22.963,22.963,0,0,1,45.3,41.518c-1.425-4.594-5.492-8.191-11.012-9.846a11.988,11.988,0,1,0-14.024,0c-5.52,1.655-9.587,5.252-11.012,9.846A22.963,22.963,0,0,1,27.281,4.285Zm-8.7,17.7a8.7,8.7,0,1,1,8.7,8.687A8.7,8.7,0,0,1,18.578,21.982ZM12.018,44.434c.494-6.023,6.88-10.48,15.263-10.48s14.769,4.457,15.263,10.48a22.856,22.856,0,0,1-30.526,0Z" transform="translate(-1 -1)" fill="#ea933c"/>
</svg>
