<svg id="레이어_1" data-name="레이어 1" xmlns="http://www.w3.org/2000/svg" viewBox="0 0 192 192"><defs><style>.cls-1{fill:#ea933c;}.cls-2{fill:#fff;}</style></defs><rect class="cls-1" width="192" height="192" rx="10.12"/><path class="cls-2" d="M72.36,93.22q.12,1.08.12,3.48v52.56H48.12V45.34h27l21,59.76L117,45.34l27.14.28,0,103.64H119.76v-49q0-.6.12-2.82t.12-2.94q-.12.48-.42,2.52A14.73,14.73,0,0,1,119,99.7l-13.07,40-19.2.17L73.56,99A25.4,25.4,0,0,1,73,96.1,12.9,12.9,0,0,0,72.36,93.22Z"/><path class="cls-2" d="M56.73,72.42c-5.87-6-8.62-16.75-8.62-26.44,0-11.4,8-22.1,18.21-26.66a51.87,51.87,0,0,1,14.17-3.8C100.56,12.77,129.9,13.68,141,34a25.73,25.73,0,0,1,3.17,12.4c0,9.19-2.49,19.19-7.75,25.15s-12.63,9.65-22.13,11.08V60.38a15,15,0,0,0,9.61-3.82q3.55-3.39,3.56-7.16,0-6.26-7.66-9.37T96.08,36.9q-17.49,0-24.39,3t-6.92,9.58c0,2.15,1.14,4.38,3.4,6.68s5.52,3.69,9.77,4.2V82.66A33.07,33.07,0,0,1,56.73,72.42Z"/><path class="cls-2" d="M48.19,115.29l17.08-4.94-.08,44.25,21.8.26L86.6,120h19.46l-.13,35,20.85-.27.08-40.88,17.23.06v63.71l-96.27-.18Z"/><rect class="cls-2" x="87.12" y="45.23" width="18.94" height="104.76"/></svg>