<svg xmlns="http://www.w3.org/2000/svg" width="14.24" height="12.587" viewBox="0 0 14.24 12.587">
  <g id="그룹_2877" data-name="그룹 2877" transform="translate(-269.927 -2415.977)">
    <g id="그룹_1623" data-name="그룹 1623" transform="translate(269.927 2415.977)">
      <path id="합치기_17" data-name="합치기 17" d="M1.779,9.725H.89A.9.9,0,0,1,0,8.815V.912A.9.9,0,0,1,.89,0H13.352a.9.9,0,0,1,.888.912v7.9a.9.9,0,0,1-.888.91H4.571L1.779,12.587Z" transform="translate(0 0)" fill="#ea933c"/>
      <g id="그룹_1102" data-name="그룹 1102" transform="translate(4.212 4.262)">
        <g id="그룹_14" data-name="그룹 14">
          <ellipse id="타원_9" data-name="타원 9" cx="0.593" cy="0.593" rx="0.593" ry="0.593" fill="#fff"/>
        </g>
        <g id="그룹_15" data-name="그룹 15" transform="translate(4.747)">
          <ellipse id="타원_10" data-name="타원 10" cx="0.593" cy="0.593" rx="0.593" ry="0.593" fill="#fff"/>
        </g>
        <g id="그룹_16" data-name="그룹 16" transform="translate(2.374)">
          <ellipse id="타원_11" data-name="타원 11" cx="0.593" cy="0.593" rx="0.593" ry="0.593" fill="#fff"/>
        </g>
      </g>
    </g>
  </g>
</svg>
