<svg xmlns="http://www.w3.org/2000/svg" width="25.826" height="25.865" viewBox="0 0 25.826 25.865">
  <path id="합치기_23" data-name="합치기 23" d="M70.9-12014.1a3.9,3.9,0,0,1,.175-1.166l-10.593-5.987a3.971,3.971,0,0,1-3.513,2.133,3.971,3.971,0,0,1-3.966-3.966,3.968,3.968,0,0,1,3.966-3.963,3.966,3.966,0,0,1,3.513,2.133l10.584-5.984a3.928,3.928,0,0,1-.166-1.136A3.97,3.97,0,0,1,74.86-12036a3.971,3.971,0,0,1,3.966,3.966,3.971,3.971,0,0,1-3.966,3.966,3.961,3.961,0,0,1-3.371-1.885l-10.651,6.023a3.9,3.9,0,0,1,.091.846,3.9,3.9,0,0,1-.091.849l10.666,6.029a3.969,3.969,0,0,1,3.356-1.857,3.971,3.971,0,0,1,3.966,3.966,3.968,3.968,0,0,1-3.966,3.963A3.967,3.967,0,0,1,70.9-12014.1Z" transform="translate(-53 12036)" fill="#fff"/>
</svg>
