<svg xmlns="http://www.w3.org/2000/svg" width="20.732" height="20.732" viewBox="0 0 20.732 20.732">
  <g id="그룹_1463" data-name="그룹 1463" transform="translate(-8962.268 -7114)">
    <g id="그룹_1461" data-name="그룹 1461" transform="translate(8962.268 7114)">
      <path id="패스_1753" data-name="패스 1753" d="M9.13,0a9.13,9.13,0,1,0,9.13,9.13A9.141,9.141,0,0,0,9.13,0Zm0,16.575A7.445,7.445,0,1,1,16.575,9.13,7.453,7.453,0,0,1,9.13,16.575Z" fill="#fff"/>
    </g>
    <g id="그룹_1462" data-name="그룹 1462" transform="translate(8976.482 7128.215)">
      <path id="패스_1754" data-name="패스 1754" d="M357.316,356.125l-4.832-4.832a.843.843,0,1,0-1.192,1.192l4.832,4.832a.843.843,0,0,0,1.192-1.192Z" transform="translate(-351.046 -351.046)" fill="#fff"/>
    </g>
  </g>
</svg>
