<svg xmlns="http://www.w3.org/2000/svg" width="10.048" height="10.049" viewBox="0 0 10.048 10.049">
  <g id="그룹_1622" data-name="그룹 1622" transform="translate(0 0)">
    <g id="그룹_174" data-name="그룹 174" transform="translate(0 0)">
      <g id="그룹_173" data-name="그룹 173">
        <path id="패스_56" data-name="패스 56" d="M4.425,0A4.425,4.425,0,1,0,8.85,4.425,4.43,4.43,0,0,0,4.425,0Zm0,8.034A3.608,3.608,0,1,1,8.033,4.425,3.612,3.612,0,0,1,4.425,8.034Z" fill="#ef8e24"/>
      </g>
    </g>
    <g id="그룹_176" data-name="그룹 176" transform="translate(6.889 6.89)">
      <g id="그룹_175" data-name="그룹 175">
        <path id="패스_57" data-name="패스 57" d="M354.085,353.507l-2.342-2.342a.408.408,0,0,0-.578.578l2.342,2.342a.408.408,0,0,0,.578-.578Z" transform="translate(-351.046 -351.046)" fill="#ef8e24"/>
      </g>
    </g>
  </g>
</svg>
