<svg xmlns="http://www.w3.org/2000/svg" width="21.812" height="24.525" viewBox="0 0 21.812 24.525">
  <g id="_3586375_clock_hour_timer_watch_icon" data-name="3586375_clock_hour_timer_watch_icon" transform="translate(-7.35 -1.9)">
    <path id="패스_1611" data-name="패스 1611" d="M19.892,5.618V4.5h1.044a.392.392,0,0,0,.382-.382V2.282a.392.392,0,0,0-.382-.382H16.48a.392.392,0,0,0-.382.382V4.116a.392.392,0,0,0,.382.382h1.044V5.618a10.517,10.517,0,0,0-6.316,3.107l-.433-.433.713-.713a.369.369,0,0,0,0-.535L10.011,5.567a.369.369,0,0,0-.535,0L7.465,7.528a.369.369,0,0,0,0,.535L8.942,9.54a.436.436,0,0,0,.56,0L10.24,8.8l.484.484a10.349,10.349,0,0,0-2.445,6.7A10.441,10.441,0,1,0,19.892,5.618ZM9.222,8.751,8.28,7.783,9.706,6.357l.942.942-.56.56-.28.28Zm8.684-5.017H16.862V2.664h3.693v1.07H19.51a.392.392,0,0,0-.382.382V5.567h-.815V4.116A.414.414,0,0,0,17.906,3.734ZM18.7,25.661a9.677,9.677,0,1,1,0-19.355,4.907,4.907,0,0,1,.611.025c.1,0,.2.025.306.025a9.674,9.674,0,0,1-.917,19.3Z" fill="#ea933c"/>
    <path id="패스_1612" data-name="패스 1612" d="M33.1,26.563l-.076-.076a8.238,8.238,0,0,0-5.4-1.986A8.3,8.3,0,1,0,33.1,26.563ZM27.6,40.417a7.564,7.564,0,1,1,4.635-13.523l-4.126,4.737a1.644,1.644,0,0,0-.484-.1,1.3,1.3,0,1,0,0,2.6,1.283,1.283,0,0,0,1.273-1.3,1.369,1.369,0,0,0-.2-.713l4.151-4.762a7.493,7.493,0,0,1,2.343,5.475A7.608,7.608,0,0,1,27.6,40.417Zm.535-7.589a.535.535,0,0,1-1.07,0,.535.535,0,1,1,1.07,0Z" transform="translate(-8.907 -16.844)" fill="#ea933c"/>
  </g>
</svg>
