<svg xmlns="http://www.w3.org/2000/svg" width="37.869" height="21.632" viewBox="0 0 37.869 21.632">
  <g id="그룹_2721" data-name="그룹 2721" transform="translate(-42 -100.89)">
    <g id="구성_요소_1_1" data-name="구성 요소 1 – 1" transform="translate(42 100.891)">
      <g id="사각형_758" data-name="사각형 758" transform="translate(0 0)" fill="none" stroke="#707070" stroke-width="0.7">
        <rect width="37.869" height="21.632" rx="2" stroke="none"/>
        <rect x="0.35" y="0.35" width="37.169" height="20.932" rx="1.65" fill="none"/>
      </g>
    </g>
    <g id="사각형_759" data-name="사각형 759" transform="translate(42 103.594)" fill="none" stroke="#707070" stroke-width="0.5">
      <rect width="37.869" height="3.515" stroke="none"/>
      <rect x="0.25" y="0.25" width="37.369" height="3.015" fill="none"/>
    </g>
    <g id="사각형_760" data-name="사각형 760" transform="translate(49.128 109.543)" fill="none" stroke="#707070" stroke-width="0.3">
      <rect width="24.079" height="2.61" stroke="none"/>
      <rect x="0.15" y="0.15" width="23.779" height="2.31" fill="none"/>
    </g>
    <text id="_4921_542" data-name="4921 542" transform="translate(70.126 111.154)" fill="#6f6f6f" font-size="1" font-family="NanumGothicBold, NanumGothic"><tspan x="-2.261" y="0">4921 542</tspan></text>
    <text id="_4921" data-name="4921" transform="matrix(-1, 0, 0, 1, 71.796, 115.07)" fill="none" stroke="#707070" stroke-width="0.1" font-size="1" font-family="NanumGothicExtraBold, NanumGothic"><tspan x="-1.212" y="0">4921</tspan></text>
    <text id="_6399" data-name="6399" transform="matrix(-1, 0, 0, 1, 64.921, 115.07)" fill="none" stroke="#707070" stroke-width="0.1" font-size="1" font-family="NanumGothicExtraBold, NanumGothic"><tspan x="-1.212" y="0">6399</tspan></text>
    <text id="_5559" data-name="5559" transform="matrix(-1, 0, 0, 1, 58.046, 115.07)" fill="none" stroke="#707070" stroke-width="0.1" font-size="1" font-family="NanumGothicExtraBold, NanumGothic"><tspan x="-1.212" y="0">5559</tspan></text>
    <text id="_0943" data-name="0943" transform="matrix(-1, 0, 0, 1, 51.426, 115.07)" fill="none" stroke="#707070" stroke-width="0.1" font-size="1" font-family="NanumGothicExtraBold, NanumGothic"><tspan x="-1.212" y="0">0943</tspan></text>
  </g>
</svg>
