<svg xmlns="http://www.w3.org/2000/svg" xmlns:xlink="http://www.w3.org/1999/xlink" width="269.937" height="269.937" viewBox="0 0 269.937 269.937">
  <defs>
    <filter id="패스_101" x="0" y="0" width="269.937" height="269.937" filterUnits="userSpaceOnUse">
      <feOffset input="SourceAlpha"/>
      <feGaussianBlur stdDeviation="5" result="blur"/>
      <feFlood flood-opacity="0.161" result="color"/>
      <feComposite operator="out" in="SourceGraphic" in2="blur"/>
      <feComposite operator="in" in="color"/>
      <feComposite operator="in" in2="SourceGraphic"/>
    </filter>
  </defs>
  <g id="그룹_1606" data-name="그룹 1606" transform="translate(-541.186 -390)">
    <g data-type="innerShadowGroup">
      <path id="패스_101-2" data-name="패스 101" d="M134.969,0A134.969,134.969,0,1,1,0,134.969,134.969,134.969,0,0,1,134.969,0Z" transform="translate(541.186 390)" fill="#dbdbdb"/>
      <g transform="matrix(1, 0, 0, 1, 541.19, 390)" filter="url(#패스_101)">
        <path id="패스_101-3" data-name="패스 101" d="M134.969,0A134.969,134.969,0,1,1,0,134.969,134.969,134.969,0,0,1,134.969,0Z" fill="#fff"/>
      </g>
    </g>
    <g id="그룹_1586" data-name="그룹 1586" transform="translate(286.18 -12)">
      <rect id="사각형_166" data-name="사각형 166" width="11.477" height="77.47" transform="translate(318.03 510.185)" fill="#f5dcb4"/>
      <g id="그룹_1108" data-name="그룹 1108" transform="translate(303.684 452.797)">
        <rect id="사각형_154" data-name="사각형 154" width="126.674" height="77.47" transform="translate(22.954 57.388)" fill="#ebc9a0"/>
        <path id="패스_62" data-name="패스 62" d="M240.608,332.007h0A8.608,8.608,0,0,0,232,340.615v25.823h17.215V340.615A8.608,8.608,0,0,0,240.608,332.007Z" transform="translate(-154.317 -231.581)" fill="#ea933c"/>
        <path id="패스_63" data-name="패스 63" d="M240.608,332.007A8.608,8.608,0,0,0,232,340.615v5.738a8.608,8.608,0,1,1,17.215,0v-5.738A8.608,8.608,0,0,0,240.608,332.007Z" transform="translate(-154.317 -231.581)" fill="#d6771e"/>
        <path id="패스_64" data-name="패스 64" d="M320.608,332.007h0A8.608,8.608,0,0,0,312,340.615v25.823h17.215V340.615A8.608,8.608,0,0,0,320.608,332.007Z" transform="translate(-207.529 -231.581)" fill="#ea933c"/>
        <path id="패스_65" data-name="패스 65" d="M320.608,332.007A8.608,8.608,0,0,0,312,340.615v5.738a8.608,8.608,0,1,1,17.215,0v-5.738A8.608,8.608,0,0,0,320.608,332.007Z" transform="translate(-207.529 -231.581)" fill="#d6771e"/>
        <path id="패스_66" data-name="패스 66" d="M400.608,332.007h0A8.608,8.608,0,0,0,392,340.615v25.823h17.215V340.615A8.608,8.608,0,0,0,400.608,332.007Z" transform="translate(-262.457 -231.581)" fill="#ea933c"/>
        <path id="패스_67" data-name="패스 67" d="M400.608,332.007A8.608,8.608,0,0,0,392,340.615v5.738a8.608,8.608,0,1,1,17.215,0v-5.738A8.608,8.608,0,0,0,400.608,332.007Z" transform="translate(-262.457 -231.581)" fill="#d6771e"/>
        <path id="패스_68" data-name="패스 68" d="M80.608,332.007h0A8.608,8.608,0,0,0,72,340.615v25.823H89.215V340.615A8.608,8.608,0,0,0,80.608,332.007Z" transform="translate(-46.177 -231.581)" fill="#ea933c"/>
        <path id="패스_69" data-name="패스 69" d="M80.608,332.007A8.608,8.608,0,0,0,72,340.615v5.738a8.608,8.608,0,1,1,17.215,0v-5.738A8.608,8.608,0,0,0,80.608,332.007Z" transform="translate(-46.177 -231.581)" fill="#d6771e"/>
        <path id="패스_70" data-name="패스 70" d="M160.608,332.007h0A8.608,8.608,0,0,0,152,340.615v25.823h17.215V340.615A8.608,8.608,0,0,0,160.608,332.007Z" transform="translate(-101.104 -231.581)" fill="#ea933c"/>
        <path id="패스_71" data-name="패스 71" d="M160.608,332.007A8.608,8.608,0,0,0,152,340.615v5.738a8.608,8.608,0,1,1,17.215,0v-5.738A8.608,8.608,0,0,0,160.608,332.007Z" transform="translate(-101.104 -231.581)" fill="#d6771e"/>
        <rect id="사각형_156" data-name="사각형 156" width="11.477" height="77.47" transform="translate(67.127 57.388)" fill="#f5dcb4"/>
        <rect id="사각형_158" data-name="사각형 158" width="11.477" height="77.47" transform="translate(93.978 57.388)" fill="#f5dcb4"/>
        <rect id="사각형_160" data-name="사각형 160" width="11.477" height="77.47" transform="translate(120.829 57.388)" fill="#f5dcb4"/>
        <rect id="사각형_162" data-name="사각형 162" width="11.477" height="77.47" transform="translate(146.759 57.388)" fill="#f5dcb4"/>
        <rect id="사각형_164" data-name="사각형 164" width="11.477" height="77.47" transform="translate(40.277 57.388)" fill="#f5dcb4"/>
        <path id="패스_72" data-name="패스 72" d="M176.687,199.484H26.679A2.779,2.779,0,0,1,24,196.615v-8.608H179.366v8.608A2.779,2.779,0,0,1,176.687,199.484Z" transform="translate(-15.392 -139.227)" fill="#faebc8"/>
        <path id="패스_73" data-name="패스 73" d="M179.366,111.046H24l77.683-43.039Z" transform="translate(-15.392 -62.266)" fill="#f5dcb4"/>
        <path id="패스_74" data-name="패스 74" d="M101.683,68.007,24,111.046H42.137l59.546-32.989,59.545,32.989h18.138Z" transform="translate(-15.392 -62.266)" fill="#ebc9a0" opacity="0.685"/>
        <g id="그룹_178" data-name="그룹 178" transform="translate(8.608 48.779)" opacity="0.685">
          <path id="패스_75" data-name="패스 75" d="M453.26,196.611v-8.6H433.832l14.155,7.321a11.505,11.505,0,0,0,5.269,1.283Z" transform="translate(-297.893 -188.007)" fill="#f5dcb4"/>
          <path id="패스_76" data-name="패스 76" d="M24,196.614h0a11.5,11.5,0,0,0,5.278-1.291l14.145-7.317H24Z" transform="translate(-24 -188.007)" fill="#f5dcb4"/>
        </g>
        <path id="패스_77" data-name="패스 77" d="M169.455,98.51a5.081,5.081,0,0,1-2.469-.642L91.42,56.194,15.853,97.868A5.22,5.22,0,0,1,8.6,95.408a5.929,5.929,0,0,1,2.307-7.734l78.04-43.039a5.076,5.076,0,0,1,4.946,0l78.04,43.039a5.928,5.928,0,0,1,2.307,7.734A5.345,5.345,0,0,1,169.455,98.51Z" transform="translate(-5.129 -43.993)" fill="#ea933c"/>
        <path id="패스_79" data-name="패스 79" d="M241.823,156.615H218.869A2.869,2.869,0,0,1,216,153.745v-2.869a2.869,2.869,0,0,1,2.869-2.869h22.954a2.869,2.869,0,0,1,2.869,2.869v2.869A2.869,2.869,0,0,1,241.823,156.615Z" transform="translate(-144.005 -116.574)" fill="#faebc8"/>
        <path id="패스_81" data-name="패스 81" d="M179.366,439.484H24v-8.608a2.779,2.779,0,0,1,2.679-2.869H176.687a2.779,2.779,0,0,1,2.679,2.869Z" transform="translate(-15.392 -293.15)" fill="#d6771e"/>
        <path id="패스_82" data-name="패스 82" d="M169.885,457.745H2.7a2.875,2.875,0,0,1,0-5.739H169.885a2.875,2.875,0,0,1,0,5.739Z" transform="translate(0 -308.542)" fill="#ea933c"/>
      </g>
    </g>
    <g id="그룹_370" data-name="그룹 370" transform="translate(-28.656 -96)">
      <circle id="타원_50" data-name="타원 50" cx="28" cy="28" r="28" transform="translate(744 562)" fill="#ea933c"/>
      <g id="그룹_364" data-name="그룹 364" transform="translate(267.973 -22.605)">
        <path id="패스_165" data-name="패스 165" d="M13961.5,5775.921v18.441" transform="translate(-13456.972 -5170.95)" fill="none" stroke="#dbdbdb" stroke-linecap="round" stroke-width="3.5"/>
        <path id="패스_166" data-name="패스 166" d="M13961.5,5775.921v18.441" transform="translate(-13456.974 -5172.421)" fill="none" stroke="#dbdbdb" stroke-linecap="round" stroke-width="3.5"/>
        <path id="패스_167" data-name="패스 167" d="M0,0V18.441" transform="translate(513.941 612.961) rotate(90)" fill="none" stroke="#dbdbdb" stroke-linecap="round" stroke-width="3.5"/>
      </g>
    </g>
  </g>
</svg>
