<svg xmlns="http://www.w3.org/2000/svg" width="68" height="65" viewBox="0 0 68 65">
  <g id="그룹_3828" data-name="그룹 3828" transform="translate(-577 -1862)">
    <rect id="사각형_2542" data-name="사각형 2542" width="68" height="65" transform="translate(577 1862)" fill="#1d1d1d"/>
    <g id="next" transform="translate(604.288 1881.375) rotate(1)">
      <g id="그룹_133" data-name="그룹 133" transform="translate(0 0)">
        <path id="패스_49" data-name="패스 49" d="M133.918,14.379,119.766.344a1.191,1.191,0,0,0-1.677,0,1.175,1.175,0,0,0,0,1.668l13.309,13.2-13.31,13.2a1.175,1.175,0,0,0,0,1.668,1.191,1.191,0,0,0,1.678,0l14.152-14.035a1.174,1.174,0,0,0,0-1.67Z" transform="translate(-117.742 0)" fill="#fff"/>
      </g>
    </g>
  </g>
</svg>
