<svg id="그룹_500" data-name="그룹 500" xmlns="http://www.w3.org/2000/svg" width="25.635" height="25.636" viewBox="0 0 25.635 25.636">
  <g id="그룹_174" data-name="그룹 174" transform="translate(0 0)">
    <g id="그룹_173" data-name="그룹 173">
      <path id="패스_56" data-name="패스 56" d="M11.289,0A11.289,11.289,0,1,0,22.579,11.289,11.3,11.3,0,0,0,11.289,0Zm0,20.495a9.205,9.205,0,1,1,9.205-9.205A9.216,9.216,0,0,1,11.289,20.495Z" fill="#ea933c"/>
    </g>
  </g>
  <g id="그룹_176" data-name="그룹 176" transform="translate(17.576 17.577)">
    <g id="그룹_175" data-name="그룹 175">
      <path id="패스_57" data-name="패스 57" d="M358.8,357.326l-5.975-5.975a1.042,1.042,0,0,0-1.474,1.474l5.975,5.975a1.042,1.042,0,1,0,1.474-1.474Z" transform="translate(-351.046 -351.046)" fill="#ea933c"/>
    </g>
  </g>
</svg>
