<svg id="그룹_461" data-name="그룹 461" xmlns="http://www.w3.org/2000/svg" width="93.181" height="93.181" viewBox="0 0 93.181 93.181">
  <path id="패스_268" data-name="패스 268" d="M46.591,0A46.567,46.567,0,0,0,10.674,76.235a.828.828,0,0,0,.037.075A46.585,46.585,0,0,0,28.3,89.437c.078.034.156.069.235.1.544.229,1.094.443,1.647.651.219.083.437.166.657.246q.714.256,1.438.487.464.15.932.291.641.192,1.286.366c.378.1.76.2,1.142.289s.775.186,1.165.269c.436.094.877.176,1.317.257.353.065.705.133,1.061.19.49.079.986.142,1.481.205.317.04.633.087.951.121.561.06,1.126.1,1.692.141.261.018.52.046.783.06.829.044,1.663.069,2.5.069s1.674-.025,2.5-.069c.262-.014.521-.041.783-.06.566-.039,1.132-.081,1.692-.141.318-.034.634-.081.951-.121.5-.063.99-.127,1.481-.205.355-.057.708-.125,1.061-.19.441-.081.88-.163,1.316-.257.39-.084.778-.176,1.166-.269s.763-.187,1.142-.289c.431-.115.859-.238,1.286-.366q.468-.141.932-.291c.482-.156.962-.317,1.438-.487.22-.08.438-.163.657-.246.553-.208,1.1-.422,1.647-.651.079-.033.156-.069.235-.1A46.584,46.584,0,0,0,82.47,76.311a.826.826,0,0,0,.037-.075A46.568,46.568,0,0,0,46.591,0ZM64.3,87.966c-.108.046-.215.095-.323.14-.522.22-1.05.425-1.582.625-.212.08-.425.16-.639.236q-.7.25-1.406.476-.438.141-.879.272-.628.188-1.262.359c-.359.1-.72.184-1.082.271-.378.091-.757.182-1.138.263-.417.088-.836.166-1.256.243-.342.063-.683.129-1.028.184-.471.075-.944.135-1.418.2-.306.039-.611.084-.919.117-.539.057-1.082.1-1.624.133-.251.017-.5.044-.752.058-.8.04-1.6.064-2.406.064s-1.606-.024-2.4-.066c-.252-.013-.5-.039-.752-.058-.543-.038-1.086-.077-1.624-.133-.309-.032-.613-.078-.919-.117-.474-.06-.948-.12-1.418-.2-.345-.055-.685-.122-1.028-.184-.42-.077-.839-.154-1.256-.243-.381-.081-.76-.172-1.138-.263-.362-.087-.723-.175-1.082-.271-.423-.113-.844-.234-1.262-.359q-.441-.131-.879-.272-.707-.227-1.406-.476c-.214-.077-.426-.156-.639-.236-.531-.2-1.061-.405-1.582-.625-.108-.045-.216-.094-.323-.14A45.22,45.22,0,0,1,12.193,75.577,35.649,35.649,0,0,1,35.985,50.6c.054.036.113.066.168.1.317.2.64.391.969.571l.178.1c.324.174.654.336.988.491q.168.078.339.153c.322.142.648.277.978.4.057.021.113.046.17.067.381.141.769.267,1.161.384.105.032.211.06.316.09.324.091.651.175.982.249.085.019.17.041.256.059q.605.128,1.224.22c.086.013.173.021.259.033q.5.068,1.012.108c.115.009.228.019.343.026.417.028.837.046,1.262.046s.845-.018,1.263-.045c.115-.007.228-.017.343-.026q.509-.041,1.012-.108c.086-.012.173-.021.259-.033q.618-.091,1.224-.22c.085-.018.171-.039.256-.059q.5-.113.982-.249c.106-.03.211-.058.316-.09.392-.118.779-.243,1.161-.384.057-.021.113-.045.17-.067.331-.126.656-.261.978-.4.114-.05.226-.1.339-.153.334-.156.664-.318.988-.491l.178-.1c.329-.181.651-.373.969-.571.055-.035.114-.064.169-.1A35.648,35.648,0,0,1,80.99,75.579,45.244,45.244,0,0,1,64.3,87.966ZM28.428,33.956A18.162,18.162,0,1,1,56.462,49.19q-.391.255-.793.487c-.1.055-.19.111-.287.165-.329.183-.663.357-1,.518-.078.037-.158.071-.237.107q-.436.2-.88.376c-.092.036-.183.074-.276.109-.359.136-.723.261-1.09.374-.069.021-.138.039-.207.059-.32.094-.642.178-.967.253l-.276.064c-.384.083-.769.156-1.158.215-.051.008-.1.013-.152.02-.345.049-.693.086-1.041.114l-.308.024c-.4.026-.8.043-1.2.043s-.8-.017-1.2-.043l-.308-.024q-.524-.043-1.041-.114c-.051-.007-.1-.012-.152-.02-.389-.058-.775-.132-1.158-.215-.092-.02-.184-.043-.276-.064q-.487-.114-.967-.253c-.069-.021-.138-.038-.207-.059-.367-.112-.73-.238-1.09-.374-.093-.035-.184-.073-.276-.109q-.444-.176-.88-.376c-.079-.036-.159-.07-.237-.107-.339-.161-.672-.335-1-.518-.1-.054-.191-.11-.287-.165q-.4-.233-.793-.487A18.158,18.158,0,0,1,28.428,33.956ZM82.2,74.079a37.228,37.228,0,0,0-23.429-24.6,19.742,19.742,0,1,0-24.353,0,37.227,37.227,0,0,0-23.43,24.6A45,45,0,1,1,91.6,46.591,44.774,44.774,0,0,1,82.2,74.079Z" fill="#707070"/>
</svg>
