<svg xmlns="http://www.w3.org/2000/svg" width="58" height="58" viewBox="0 0 58 58">
  <g id="그룹_3495" data-name="그룹 3495" transform="translate(-188 -1682)">
    <circle id="타원_256" data-name="타원 256" cx="29" cy="29" r="29" transform="translate(188 1682)" fill="#1d1d1d"/>
    <g id="next" transform="matrix(-1, 0.017, -0.017, -1, 220.242, 1723.798)">
      <g id="그룹_133" data-name="그룹 133" transform="translate(0 0)">
        <path id="패스_49" data-name="패스 49" d="M13.74,13.632,1.719,25.554a1.012,1.012,0,0,1-1.425,0,1,1,0,0,1,0-1.417L11.6,12.923.3,1.711a1,1,0,0,1,0-1.417,1.012,1.012,0,0,1,1.425,0L13.74,12.214a1,1,0,0,1,0,1.419Z" fill="#fff"/>
      </g>
    </g>
  </g>
</svg>
