<svg xmlns="http://www.w3.org/2000/svg" width="58" height="58" viewBox="0 0 58 58">
  <g id="그룹_3496" data-name="그룹 3496" transform="translate(-282 -1682)">
    <circle id="타원_257" data-name="타원 257" cx="29" cy="29" r="29" transform="translate(282 1682)" fill="#1d1d1d"/>
    <g id="next" transform="translate(307.209 1697.956) rotate(1)">
      <g id="그룹_133" data-name="그룹 133" transform="translate(0 0)">
        <path id="패스_49" data-name="패스 49" d="M131.482,12.214,119.461.292a1.012,1.012,0,0,0-1.425,0,1,1,0,0,0,0,1.417l11.305,11.212L118.038,24.135a1,1,0,0,0,0,1.417,1.012,1.012,0,0,0,1.425,0l12.021-11.921a1,1,0,0,0,0-1.419Z" transform="translate(-117.742 0)" fill="#fff"/>
      </g>
    </g>
  </g>
</svg>
