<svg id="그룹_255" data-name="그룹 255" xmlns="http://www.w3.org/2000/svg" width="23.143" height="23.237" viewBox="0 0 23.143 23.237">
  <path id="패스_129" data-name="패스 129" d="M1.27,200.461a.362.362,0,1,1,.723,0v13.079A1.512,1.512,0,0,0,3.5,215.046H22.183a1.512,1.512,0,0,0,1.506-1.507V200.461a.362.362,0,1,1,.723,0v13.079a2.235,2.235,0,0,1-2.229,2.23H3.5a2.235,2.235,0,0,1-2.229-2.23Z" transform="translate(-1.269 -192.532)" fill="#ea933c"/>
  <path id="패스_130" data-name="패스 130" d="M79.568,225.527h-3.48v3.947h3.48v-3.947Zm-3.842-.723h4.2a.362.362,0,0,1,.362.362v4.67a.362.362,0,0,1-.362.362h-4.2a.362.362,0,0,1-.362-.362v-4.67A.362.362,0,0,1,75.726,224.8Z" transform="translate(-72.562 -216.303)" fill="#ea933c"/>
  <path id="패스_131" data-name="패스 131" d="M413.053,225.527h-3.48v3.947h3.48v-3.947Zm-3.843-.723h4.2a.362.362,0,0,1,.362.362v4.67a.362.362,0,0,1-.362.362h-4.2a.363.363,0,0,1-.362-.362v-4.67A.363.363,0,0,1,409.211,224.8Z" transform="translate(-393.436 -216.303)" fill="#ea933c"/>
  <path id="패스_132" data-name="패스 132" d="M246.3,225.527h-3.48v3.947h3.48v-3.947Zm-3.842-.723h4.2a.362.362,0,0,1,.362.362v4.67a.362.362,0,0,1-.362.362h-4.2a.362.362,0,0,1-.362-.362v-4.67A.363.363,0,0,1,242.458,224.8Z" transform="translate(-232.989 -216.303)" fill="#ea933c"/>
  <path id="패스_133" data-name="패스 133" d="M79.568,398.461h-3.48v3.947h3.48v-3.947Zm-3.842-.724h4.2a.362.362,0,0,1,.362.362v4.671a.362.362,0,0,1-.362.362h-4.2a.362.362,0,0,1-.362-.362V398.1A.362.362,0,0,1,75.726,397.737Z" transform="translate(-72.562 -382.697)" fill="#ea933c"/>
  <path id="패스_134" data-name="패스 134" d="M413.053,398.461h-3.48v3.947h3.48v-3.947Zm-3.843-.724h4.2a.362.362,0,0,1,.362.362v4.671a.362.362,0,0,1-.362.362h-4.2a.363.363,0,0,1-.362-.362V398.1A.363.363,0,0,1,409.211,397.737Z" transform="translate(-393.436 -382.697)" fill="#ea933c"/>
  <path id="패스_135" data-name="패스 135" d="M246.3,398.461h-3.48v3.947h3.48v-3.947Zm-3.842-.724h4.2a.362.362,0,0,1,.362.362v4.671a.362.362,0,0,1-.362.362h-4.2a.362.362,0,0,1-.362-.362V398.1A.363.363,0,0,1,242.458,397.737Z" transform="translate(-232.989 -382.697)" fill="#ea933c"/>
  <path id="패스_136" data-name="패스 136" d="M441.857,4.263a.362.362,0,1,1-.723,0V.362a.361.361,0,1,1,.722,0v3.9Z" transform="translate(-424.5)" fill="#ea933c"/>
  <path id="패스_137" data-name="패스 137" d="M154.982,4.263a.362.362,0,1,1-.723,0V.362a.362.362,0,1,1,.723,0Z" transform="translate(-148.473)" fill="#ea933c"/>
  <path id="패스_138" data-name="패스 138" d="M7.4,47.851a.362.362,0,1,1,0,.723H3.479a1.5,1.5,0,0,0-1.062.445l-.017.017a1.5,1.5,0,0,0-.427,1.044v1.659h21.7V50.08a1.5,1.5,0,0,0-.444-1.061L23.206,49a1.5,1.5,0,0,0-1.045-.427H19.688a.362.362,0,1,1,0-.723h2.473a2.228,2.228,0,0,1,1.549.634l.025.023a2.225,2.225,0,0,1,.656,1.573V52.1a.362.362,0,0,1-.362.362H1.611a.362.362,0,0,1-.362-.362V50.08a2.225,2.225,0,0,1,.634-1.548l.023-.025a2.223,2.223,0,0,1,1.573-.657H7.4Zm10.848,0h-9.4a.362.362,0,0,0,0,.723h9.4a.362.362,0,1,0,0-.723Z" transform="translate(-1.249 -46.041)" fill="#ea933c"/>
</svg>
