<svg xmlns="http://www.w3.org/2000/svg" width="23.927" height="22.997" viewBox="0 0 23.927 22.997">
  <path id="패스_1607" data-name="패스 1607" d="M44.925,54.015l-6.01-3.337-6.053,3.047A1.038,1.038,0,0,1,31.457,52.6c.192-.989,1.291-6.623,1.291-6.623s-4.11-4.181-4.72-4.764a1,1,0,0,1,.675-1.745l6.608-.808s2.918-5.587,3.188-6.1a1.036,1.036,0,0,1,1.658.046l2.9,6.229S49.378,39.9,49.9,39.992a.936.936,0,0,1,.388,1.613l-5,4.659s.944,6.253,1.041,7.02S45.556,54.364,44.925,54.015Z" transform="translate(-27.18 -31.672)" fill="none" stroke="#ea933c" stroke-linecap="round" stroke-linejoin="round" stroke-miterlimit="10" stroke-width="1"/>
</svg>
