<svg xmlns="http://www.w3.org/2000/svg" width="1171.501" height="210.892" viewBox="0 0 1171.501 210.892">
  <path id="패스_6545" data-name="패스 6545" d="M82.181-138.668V26.448q0,3.175-1.085,4.234A4.869,4.869,0,0,1,77.6,31.74H53.984a4.869,4.869,0,0,1-3.494-1.058q-1.084-1.058-1.084-4.234V-138.668H6.748a5.275,5.275,0,0,1-3.736-1.058q-1.084-1.058-1.084-3.969v-23.021q0-5.292,4.82-5.292H125.32q3.133,0,3.977,1.191a7.388,7.388,0,0,1,.843,4.1V-143.7q0,2.911-.843,3.969t-3.977,1.058ZM170.387,31.74a5.276,5.276,0,0,1-3.736-1.058q-1.085-1.058-1.085-4.234V-166.716q0-5.292,4.82-5.292h23.136q4.82,0,4.82,5.292v77.265h66.275v-77.265q0-5.292,4.82-5.292h23.136q4.82,0,4.82,5.292V26.448q0,3.175-1.085,4.234a5.276,5.276,0,0,1-3.736,1.058H269.438a5.276,5.276,0,0,1-3.735-1.058q-1.084-1.058-1.085-4.234V-56.11H198.343V26.448q0,3.175-1.084,4.234a5.276,5.276,0,0,1-3.736,1.058ZM360.3,32q-5.784,0-6.989-1.588t-1.2-8.2V-162.747q0-6.086,1.085-7.674t6.628-1.588h85.8q4.1,0,4.579,1.588a17.548,17.548,0,0,1,.482,4.763v20.639q0,3.7-.723,4.9t-4.338,1.191H384.877v50.275h57.6q3.856,0,4.458,1.588a14.212,14.212,0,0,1,.6,4.763v20.639q0,3.7-.844,4.9t-4.217,1.191h-57.6V-1.072h63.142q3.856,0,4.458,1.323a12.873,12.873,0,0,1,.6,4.763V25.654a14.051,14.051,0,0,1-.6,4.9Q451.875,32,448.019,32ZM744.69,31.74q-3.133,0-3.856-.926t-.723-4.1V-106.121L693.116,25.918a10.261,10.261,0,0,1-2.169,3.7,5.937,5.937,0,0,1-3.615.794H666.365a6.551,6.551,0,0,1-3.736-.794q-1.084-.794-2.048-3.7L613.586-106.121V26.712q0,3.175-.723,4.1t-3.856.926H585.389q-3.133,0-3.856-.926t-.723-4.1V-164.07q0-5.557,1.084-6.747t5.9-1.191h26.992a6.1,6.1,0,0,1,3.374.794,6.879,6.879,0,0,1,2.169,3.44L676.728-14.037l56.635-153.737a5.807,5.807,0,0,1,6.025-4.234h26.269q5.061,0,6.146,1.191t1.084,6.747V26.712q0,3.175-.844,4.1t-3.735.926Zm80.976,0a5.276,5.276,0,0,1-3.735-1.058q-1.085-1.058-1.085-4.234V-166.716q0-5.292,4.82-5.292H848.8q4.82,0,4.82,5.292V26.448q0,3.175-1.084,4.234A5.276,5.276,0,0,1,848.8,31.74Zm197.379-2.646a102.028,102.028,0,0,1-16.508,4.5A119.487,119.487,0,0,1,984,35.444,93.654,93.654,0,0,1,946.045,27.9,83.759,83.759,0,0,1,916.523,6.47a99.832,99.832,0,0,1-19.159-33.341q-6.869-19.449-6.869-43.263a127.547,127.547,0,0,1,6.869-42.734,99.832,99.832,0,0,1,19.159-33.341,85.21,85.21,0,0,1,29.523-21.566A92.26,92.26,0,0,1,984-175.448a147.214,147.214,0,0,1,20.967,1.455,106.867,106.867,0,0,1,18.8,4.366q3.374,1.323,3.495,3.175t.12,4.5L1026.9-139.2q0,4.5-1.928,5.028t-6.266-.794a119.743,119.743,0,0,0-19.4-4.631,128.411,128.411,0,0,0-17.714-1.191,55.166,55.166,0,0,0-24.221,5.16,51.513,51.513,0,0,0-18.2,14.553,67.108,67.108,0,0,0-11.447,22.359,97.143,97.143,0,0,0-3.977,28.578,87.539,87.539,0,0,0,4.338,28.181,69.921,69.921,0,0,0,12.05,22.227,61.016,61.016,0,0,0,18.2,15.083,61.219,61.219,0,0,0,23.016,7.012,68.648,68.648,0,0,0,22.172-.926,112.788,112.788,0,0,0,17.352-4.9q3.133-1.323,4.1-.662t1.205,3.308l1.2,23.815q.241,2.911-.723,3.969A10.1,10.1,0,0,1,1023.045,29.094Zm57.6,2.911q-5.784,0-6.989-1.588t-1.205-8.2V-162.747q0-6.086,1.084-7.674t6.628-1.588h85.8q4.1,0,4.579,1.588a17.544,17.544,0,0,1,.482,4.763v20.639q0,3.7-.723,4.9t-4.338,1.191h-60.732v50.275h57.6q3.856,0,4.458,1.588a14.21,14.21,0,0,1,.6,4.763v20.639q0,3.7-.844,4.9t-4.218,1.191h-57.6V-1.072h63.142q3.856,0,4.459,1.323a12.874,12.874,0,0,1,.6,4.763V25.654a14.053,14.053,0,0,1-.6,4.9q-.6,1.455-4.459,1.455Z" transform="translate(-1.928 175.448)" fill="#f4f4f4" opacity="0.52"/>
</svg>
