<svg xmlns="http://www.w3.org/2000/svg" width="20.156" height="18.459" viewBox="0 0 20.156 18.459">
  <g id="그룹_2907" data-name="그룹 2907" transform="translate(1340.088 -11977.35)">
    <path id="패스_7085" data-name="패스 7085" d="M77.092-40.909c0-.021,0-.042,0-.064-.022-3.111-2.122-5.626-4.712-5.626-2.3,0-4.214,1.982-4.63,4.6a.084.084,0,0,1-.168,0c-.416-2.622-2.331-4.6-4.63-4.6-2.59,0-4.691,2.515-4.712,5.626,0,.022,0,.043,0,.064s0,.021,0,.032c0,6.268,9.428,11.349,9.428,11.349s9.428-5.081,9.428-11.349C77.092-40.888,77.092-40.9,77.092-40.909Z" transform="translate(-1397.674 12024.599)" fill="none" stroke="#b1b1b1" stroke-linecap="round" stroke-miterlimit="10" stroke-width="1.3"/>
  </g>
</svg>
