<svg xmlns="http://www.w3.org/2000/svg" width="16.848" height="18.555" viewBox="0 0 16.848 18.555">
  <path id="패스_7084" data-name="패스 7084" d="M298.68,515.367a.579.579,0,0,0-.2-.435l-6.878-6.166a.6.6,0,0,0-.776-.015l-7.481,6.182a.588.588,0,0,0-.217.457v9.84a.593.593,0,0,0,.6.594l4.757-.012v-4.27a2.421,2.421,0,0,1,4.843,0V525.8l4.748-.014a.588.588,0,0,0,.592-.591C298.651,523.193,298.674,516.741,298.68,515.367Z" transform="translate(-282.482 -507.917)" fill="none" stroke="#b1b1b1" stroke-width="1.3"/>
</svg>
