<svg xmlns="http://www.w3.org/2000/svg" width="22" height="22" viewBox="0 0 22 22">
  <g id="그룹_1862" data-name="그룹 1862" transform="translate(16374 -4230)">
    <g id="타원_31" data-name="타원 31" transform="translate(-16374 4230)" fill="#707070" stroke="#707070" stroke-width="0.8">
      <circle cx="11" cy="11" r="11" stroke="none"/>
      <circle cx="11" cy="11" r="10.6" fill="none"/>
    </g>
    <g id="그룹_230" data-name="그룹 230" transform="translate(-16368.813 4235.188)">
      <path id="패스_104" data-name="패스 104" d="M1.7,11.624H9.921a1.7,1.7,0,0,0,1.7-1.7V1.7A1.7,1.7,0,0,0,9.921,0H1.7A1.7,1.7,0,0,0,0,1.7V9.921A1.7,1.7,0,0,0,1.7,11.624ZM.681,1.7A1.023,1.023,0,0,1,1.7.681H9.921A1.023,1.023,0,0,1,10.943,1.7V9.921a1.023,1.023,0,0,1-1.022,1.022H1.7A1.023,1.023,0,0,1,.681,9.921Zm0,0" fill="#dbdbdb"/>
      <path id="패스_105" data-name="패스 105" d="M124.065,127.13A3.065,3.065,0,1,0,121,124.065,3.068,3.068,0,0,0,124.065,127.13Zm0-5.449a2.384,2.384,0,1,1-2.384,2.384A2.386,2.386,0,0,1,124.065,121.681Zm0,0" transform="translate(-118.254 -118.253)" fill="#dbdbdb"/>
      <path id="패스_106" data-name="패스 106" d="M362.022,63.043A1.022,1.022,0,1,0,361,62.022,1.023,1.023,0,0,0,362.022,63.043Zm0-1.362a.341.341,0,1,1-.341.341A.341.341,0,0,1,362.022,61.681Zm0,0" transform="translate(-352.804 -59.615)" fill="#dbdbdb"/>
    </g>
  </g>
</svg>
