<svg xmlns="http://www.w3.org/2000/svg" width="18.689" height="17.589" viewBox="0 0 18.689 17.589">
  <g id="그룹_2905" data-name="그룹 2905" transform="translate(-867 -10967.001)">
    <g id="합치기_22" data-name="합치기 22" transform="translate(867 10977.994)" fill="none">
      <path d="M0,6.6V3.887H0A1.86,1.86,0,0,1,.19,3.174a2.788,2.788,0,0,1,.544-.746A4.887,4.887,0,0,1,1.6,1.753a8.109,8.109,0,0,1,1.141-.588A12.059,12.059,0,0,1,4.12.679,16.09,16.09,0,0,1,5.707.312,20.61,20.61,0,0,1,9.344,0a20.61,20.61,0,0,1,3.637.312,16.09,16.09,0,0,1,1.587.367,12.059,12.059,0,0,1,1.383.485,8.109,8.109,0,0,1,1.141.588,4.887,4.887,0,0,1,.862.675,2.788,2.788,0,0,1,.544.746,1.86,1.86,0,0,1,.188.713h0V6.6Z" stroke="none"/>
      <path d="M 17.38896179199219 5.296103000640869 L 17.38841247558594 3.954072713851929 C 17.38496208190918 3.887222766876221 17.364501953125 3.814432859420776 17.32761192321777 3.737752676010132 C 17.26871299743652 3.615312814712524 17.16673278808594 3.479332685470581 17.0328426361084 3.344652891159058 C 16.86759185791016 3.1784827709198 16.65479278564453 3.012982845306396 16.40046310424805 2.852822780609131 C 16.12444305419922 2.679042816162109 15.80233287811279 2.513432741165161 15.44309234619141 2.360592842102051 C 15.06890201568604 2.201402902603149 14.65402221679688 2.055972814559937 14.20998287200928 1.928342819213867 C 13.75300216674805 1.796992778778076 13.26230239868164 1.683782815933228 12.75158214569092 1.591862797737122 C 11.67527198791504 1.398202776908875 10.52896213531494 1.300002813339233 9.344482421875 1.300002813339233 C 8.160002708435059 1.300002813339233 7.013692378997803 1.398202776908875 5.937432289123535 1.591852784156799 C 5.426642417907715 1.683782815933228 4.935952186584473 1.797002792358398 4.478972434997559 1.928352832794189 C 4.034942626953125 2.055972814559937 3.620062351226807 2.201402902603149 3.245892524719238 2.360592842102051 C 2.886622428894043 2.513442754745483 2.564502477645874 2.679052829742432 2.288722515106201 2.852682828903198 C 2.033972501754761 3.013142824172974 1.821182370185852 3.17861270904541 1.656262397766113 3.344512701034546 C 1.522232413291931 3.479332685470581 1.420252442359924 3.615312814712524 1.361362457275391 3.737732887268066 C 1.324462413787842 3.814432859420776 1.304002404212952 3.887222766876221 1.300552368164062 3.954072713851929 L 1.300002455711365 3.975342750549316 L 1.300002455711365 5.296103000640869 L 17.38896179199219 5.296103000640869 M 18.68896293640137 6.596102714538574 L 2.42187502408342e-06 6.596102714538574 L 0.002282421803101897 3.886982679367065 C 0.01469242200255394 3.646822690963745 0.07763241976499557 3.407482862472534 0.1898624151945114 3.174182891845703 C 0.3126424252986908 2.918962717056274 0.4958324134349823 2.667882680892944 0.7343224287033081 2.427982807159424 C 0.9684924483299255 2.192432880401611 1.258422374725342 1.965252757072449 1.595872402191162 1.752702832221985 C 1.930182456970215 1.542222738265991 2.314102411270142 1.344252824783325 2.736952304840088 1.164352774620056 C 3.159812450408936 0.9844527840614319 3.625082492828369 0.8211427927017212 4.11986255645752 0.678932785987854 C 4.619422435760498 0.535342812538147 5.153482437133789 0.412062793970108 5.707162380218506 0.3124127984046936 C 6.85924243927002 0.1051127910614014 8.082982063293457 2.78778065876395e-06 9.344482421875 2.78778065876395e-06 C 10.60598278045654 2.78778065876395e-06 11.82972240447998 0.1051127910614014 12.98180198669434 0.3124127984046936 C 13.53549289703369 0.412062793970108 14.06954288482666 0.535342812538147 14.56910228729248 0.678932785987854 C 15.06388282775879 0.8211427927017212 15.52915287017822 0.9844527840614319 15.95201206207275 1.164352774620056 C 16.3748722076416 1.344252824783325 16.7587833404541 1.542222738265991 17.09309196472168 1.752702832221985 C 17.4305419921875 1.965202808380127 17.72040176391602 2.192432880401611 17.95464324951172 2.427982807159424 C 18.1931324005127 2.667882680892944 18.37632179260254 2.918962717056274 18.49910163879395 3.174182891845703 C 18.61133193969727 3.407482862472534 18.67427253723145 3.646822690963745 18.68668174743652 3.886982679367065 L 18.68896293640137 3.886982679367065 L 18.68896293640137 6.596102714538574 Z" stroke="none" fill="#b1b1b1"/>
    </g>
    <g id="타원_278" data-name="타원 278" transform="translate(871.397 10967.001)" fill="none" stroke="#b1b1b1" stroke-width="1.3">
      <circle cx="4.947" cy="4.947" r="4.947" stroke="none"/>
      <circle cx="4.947" cy="4.947" r="4.297" fill="none"/>
    </g>
  </g>
</svg>
