<svg xmlns="http://www.w3.org/2000/svg" width="32" height="31" viewBox="0 0 32 31">
  <g id="그룹_2720" data-name="그룹 2720" transform="translate(-165 -974)">
    <ellipse id="타원_277" data-name="타원 277" cx="16" cy="15.5" rx="16" ry="15.5" transform="translate(165 974)" fill="#ef8e24"/>
    <path id="패스_2368" data-name="패스 2368" d="M14.34,38.7H.67A.67.67,0,0,1,0,38.032V36.08H0a2.243,2.243,0,0,0,.449-.045,2.216,2.216,0,0,0,.418-.13,2.227,2.227,0,0,0,.379-.205,2.244,2.244,0,0,0,.33-.272,2.244,2.244,0,0,0,.272-.33,2.229,2.229,0,0,0,.205-.379,2.217,2.217,0,0,0,.13-.418,2.245,2.245,0,0,0,.045-.449,2.245,2.245,0,0,0-.045-.449,2.216,2.216,0,0,0-.13-.418,2.228,2.228,0,0,0-.205-.379,2.245,2.245,0,0,0-.272-.33A2.245,2.245,0,0,0,1.246,32,2.228,2.228,0,0,0,.867,31.8a2.218,2.218,0,0,0-.418-.13A2.244,2.244,0,0,0,0,31.623V29.67A.67.67,0,0,1,.67,29H14.337v.02a.237.237,0,0,0,.237.237h.237a.237.237,0,0,0,.237-.237V29h3.037a.67.67,0,0,1,.671.671v1.952h0a2.243,2.243,0,0,0-.449.045,2.217,2.217,0,0,0-.8.335,2.235,2.235,0,0,0-.807.98,2.217,2.217,0,0,0-.13.418,2.25,2.25,0,0,0,0,.9,2.216,2.216,0,0,0,.335.8,2.235,2.235,0,0,0,.98.807,2.216,2.216,0,0,0,.418.13,2.245,2.245,0,0,0,.449.045v1.952a.67.67,0,0,1-.671.671h-3.04a.239.239,0,0,0,0-.039v-.355a.237.237,0,0,0-.237-.237h-.237a.237.237,0,0,0-.237.237v.355a.239.239,0,0,0,0,.039Zm.233-2.288a.237.237,0,0,0-.237.237V37.3a.237.237,0,0,0,.237.237h.237a.237.237,0,0,0,.237-.237v-.651a.237.237,0,0,0-.237-.237Zm0-1.657a.237.237,0,0,0-.237.237v.651a.237.237,0,0,0,.237.237h.237a.237.237,0,0,0,.237-.237V35a.237.237,0,0,0-.237-.237Zm0-1.657a.237.237,0,0,0-.237.237v.651a.237.237,0,0,0,.237.237h.237a.237.237,0,0,0,.237-.237v-.651a.237.237,0,0,0-.237-.237Zm0-1.657a.237.237,0,0,0-.237.237v.651a.237.237,0,0,0,.237.237h.237a.237.237,0,0,0,.237-.237v-.651a.237.237,0,0,0-.237-.237Zm.237-1.657h-.237a.237.237,0,0,0-.237.237v.651a.237.237,0,0,0,.237.237h.237a.237.237,0,0,0,.237-.237v-.651a.237.237,0,0,0-.237-.237Z" transform="translate(154.297 967.225) rotate(-34)" fill="#fff"/>
  </g>
</svg>
