<svg xmlns="http://www.w3.org/2000/svg" width="22" height="22" viewBox="0 0 22 22">
  <g id="그룹_1863" data-name="그룹 1863" transform="translate(16345 -4230)">
    <g id="타원_30" data-name="타원 30" transform="translate(-16345 4230)" fill="#707070" stroke="#707070" stroke-width="0.8">
      <circle cx="11" cy="11" r="11" stroke="none"/>
      <circle cx="11" cy="11" r="10.6" fill="none"/>
    </g>
    <path id="패스_113" data-name="패스 113" d="M12.612,49.213a5.391,5.391,0,0,1-1.49.408,2.571,2.571,0,0,0,1.137-1.429,5.167,5.167,0,0,1-1.64.626,2.585,2.585,0,0,0-4.473,1.768,2.662,2.662,0,0,0,.06.59,7.318,7.318,0,0,1-5.329-2.7,2.586,2.586,0,0,0,.795,3.456A2.554,2.554,0,0,1,.5,51.609v.028a2.6,2.6,0,0,0,2.072,2.541,2.581,2.581,0,0,1-.678.085,2.286,2.286,0,0,1-.49-.044,2.61,2.61,0,0,0,2.416,1.8,5.2,5.2,0,0,1-3.206,1.1A4.844,4.844,0,0,1,0,57.087a7.279,7.279,0,0,0,3.966,1.16,7.308,7.308,0,0,0,7.359-7.358c0-.114,0-.225-.009-.334A5.158,5.158,0,0,0,12.612,49.213Z" transform="translate(-16340.085 4187.877)" fill="#dbdbdb"/>
  </g>
</svg>
