<svg id="그룹_1942" data-name="그룹 1942" xmlns="http://www.w3.org/2000/svg" width="23.212" height="20.492" viewBox="0 0 23.212 20.492">
  <path id="패스_201" data-name="패스 201" d="M17.046,30a5.5,5.5,0,0,0-3.432,1.186A7.819,7.819,0,0,0,11.606,33.6,7.818,7.818,0,0,0,9.6,31.186,5.5,5.5,0,0,0,6.166,30C2.651,30,0,32.875,0,36.688c0,4.119,3.307,6.937,8.313,11.2.85.725,1.814,1.546,2.815,2.422a.726.726,0,0,0,.955,0c1-.876,1.965-1.7,2.816-2.422,5.006-4.266,8.313-7.084,8.313-11.2C23.212,32.875,20.562,30,17.046,30Z" transform="translate(0 -30)" fill="#fff"/>
</svg>
