<svg xmlns="http://www.w3.org/2000/svg" width="50.047" height="43.72" viewBox="0 0 50.047 43.72">
  <g id="그룹_3489" data-name="그룹 3489" transform="translate(-232.637 -221.18)">
    <g id="그룹_3486" data-name="그룹 3486">
      <ellipse id="타원_262" data-name="타원 262" cx="12.632" cy="0.517" rx="12.632" ry="0.517" transform="translate(246.359 263.866)" fill="#383a3a" opacity="0.3"/>
      <g id="그룹_3485" data-name="그룹 3485">
        <g id="그룹_3484" data-name="그룹 3484">
          <rect id="사각형_2319" data-name="사각형 2319" width="5.229" height="8.714" transform="translate(256.232 252.958)"/>
        </g>
        <rect id="사각형_2320" data-name="사각형 2320" width="2.614" height="8.714" transform="translate(258.891 252.943)" fill="#060001"/>
      </g>
      <rect id="사각형_2321" data-name="사각형 2321" width="23.759" height="2.845" rx="1.422" transform="translate(247.227 261.472)"/>
    </g>
    <g id="그룹_3487" data-name="그룹 3487">
      <rect id="사각형_2322" data-name="사각형 2322" width="50.047" height="32.056" rx="2.822" transform="translate(232.637 221.18)" fill="#060001"/>
      <rect id="사각형_2323" data-name="사각형 2323" width="46.403" height="29.038" rx="2.038" transform="translate(234.459 222.689)" fill="#fff"/>
      <circle id="타원_263" data-name="타원 263" cx="0.335" cy="0.335" r="0.335" transform="translate(240.784 252.143)" fill="#fff"/>
      <circle id="타원_264" data-name="타원 264" cx="0.335" cy="0.335" r="0.335" transform="translate(239.041 252.143)" fill="#fff"/>
      <circle id="타원_265" data-name="타원 265" cx="0.335" cy="0.335" r="0.335" transform="translate(237.299 252.143)" fill="#fff"/>
    </g>
    <g id="그룹_3488" data-name="그룹 3488">
      <path id="패스_6621" data-name="패스 6621" d="M256.751,233.94l3,3-3,3" fill="none" stroke="#ea933c" stroke-linecap="round" stroke-linejoin="round" stroke-width="1.3"/>
      <path id="패스_6622" data-name="패스 6622" d="M253.85,232.9v-5.3h11.334v18.874H254v-5.545" fill="none" stroke="#ea933c" stroke-linecap="round" stroke-linejoin="round" stroke-width="1.3"/>
      <path id="패스_6623" data-name="패스 6623" d="M258.617,237.015h-8.48l.042-9.27" fill="none" stroke="#ea933c" stroke-linecap="round" stroke-linejoin="round" stroke-width="1.3"/>
    </g>
  </g>
</svg>
